<svg xmlns="http://www.w3.org/2000/svg" width="129" height="37" viewBox="0 0 129 37" fill="none">
  <path d="M54.047 26C53.1014 26 52.248 25.8204 51.4867 25.4613C50.7253 25.0902 50.1175 24.5336 49.6631 23.7914C49.221 23.0493 49 22.1096 49 20.9724V13.2155H51.3577V20.9903C51.3577 21.9719 51.5972 22.7021 52.0761 23.1809C52.5673 23.6598 53.2427 23.8992 54.1023 23.8992C54.9496 23.8992 55.6188 23.6598 56.11 23.1809C56.6012 22.7021 56.8468 21.9719 56.8468 20.9903V13.2155H59.2045V20.9724C59.2045 22.1096 58.9712 23.0493 58.5046 23.7914C58.0379 24.5336 57.4117 25.0902 56.6257 25.4613C55.8521 25.8204 54.9925 26 54.047 26Z" fill="black"/>
  <path d="M66.7688 25.7845V13.2155H71.5395C72.571 13.2155 73.4245 13.3831 74.0998 13.7182C74.7752 14.0534 75.2787 14.5143 75.6103 15.1008C75.9418 15.6874 76.1076 16.3458 76.1076 17.076C76.1076 17.7703 75.948 18.4107 75.6287 18.9972C75.3094 19.5718 74.8121 20.0387 74.1367 20.3978C73.4613 20.7449 72.5956 20.9185 71.5395 20.9185H69.1265V25.7845H66.7688ZM69.1265 19.0511H71.3921C72.2149 19.0511 72.8043 18.8775 73.1604 18.5304C73.5288 18.1713 73.713 17.6865 73.713 17.076C73.713 16.4535 73.5288 15.9687 73.1604 15.6215C72.8043 15.2624 72.2149 15.0829 71.3921 15.0829H69.1265V19.0511Z" fill="black"/>
  <path d="M83.1148 25.7845V13.2155H88.2908C89.6293 13.2155 90.6485 13.5207 91.3484 14.1312C92.0607 14.7297 92.4168 15.5018 92.4168 16.4475C92.4168 17.2376 92.1957 17.872 91.7537 18.3508C91.3239 18.8177 90.7958 19.1349 90.1696 19.3025C90.9064 19.4461 91.5142 19.8052 91.9931 20.3798C92.472 20.9424 92.7115 21.6008 92.7115 22.355C92.7115 23.3485 92.3431 24.1685 91.6063 24.8149C90.8695 25.4613 89.8257 25.7845 88.475 25.7845H83.1148ZM85.4726 18.4945H87.9408C88.6039 18.4945 89.1135 18.3448 89.4696 18.0456C89.8257 17.7463 90.0038 17.3214 90.0038 16.7707C90.0038 16.244 89.8257 15.831 89.4696 15.5318C89.1258 15.2205 88.6039 15.0649 87.904 15.0649H85.4726V18.4945ZM85.4726 23.9171H88.1066C88.8065 23.9171 89.3468 23.7615 89.7275 23.4503C90.1205 23.1271 90.3169 22.6782 90.3169 22.1036C90.3169 21.517 90.1143 21.0562 89.7091 20.721C89.3039 20.3858 88.7574 20.2182 88.0697 20.2182H85.4726V23.9171Z" fill="black"/>
  <path d="M105.934 26C104.645 26 103.515 25.7247 102.545 25.174C101.587 24.6234 100.832 23.8633 100.279 22.8936C99.7391 21.9121 99.4689 20.7808 99.4689 19.5C99.4689 18.2192 99.7391 17.0939 100.279 16.1243C100.832 15.1427 101.587 14.3766 102.545 13.826C103.515 13.2753 104.645 13 105.934 13C107.211 13 108.335 13.2753 109.305 13.826C110.275 14.3766 111.03 15.1427 111.571 16.1243C112.111 17.0939 112.381 18.2192 112.381 19.5C112.381 20.7808 112.111 21.9121 111.571 22.8936C111.03 23.8633 110.275 24.6234 109.305 25.174C108.335 25.7247 107.211 26 105.934 26ZM105.934 23.9351C107.162 23.9351 108.138 23.5401 108.863 22.75C109.6 21.9599 109.968 20.8766 109.968 19.5C109.968 18.1234 109.6 17.0401 108.863 16.25C108.138 15.4599 107.162 15.0649 105.934 15.0649C104.706 15.0649 103.724 15.4599 102.987 16.25C102.25 17.0401 101.882 18.1234 101.882 19.5C101.882 20.8766 102.25 21.9599 102.987 22.75C103.724 23.5401 104.706 23.9351 105.934 23.9351Z" fill="black"/>
  <path d="M118.059 25.7845L122.093 19.4282L118.003 13.2155H120.711L123.603 17.5967L126.255 13.2155H128.908L124.874 19.5359L129 25.7845H126.292L123.364 21.3494L120.711 25.7845H118.059Z" fill="black"/>
  <rect width="37" height="37" rx="18.5" fill="black"/>
  <path d="M13.3997 28.0303C12.0736 28.0303 10.8978 27.7922 9.87235 27.3159C8.86454 26.8396 8.0689 26.09 7.48543 25.0669C6.91964 24.0261 6.63675 22.6591 6.63675 20.9657V18.1081C6.63675 17.1203 6.63675 16.1236 6.63675 15.1182C6.63675 14.1127 6.62791 13.0984 6.61023 12.0754C6.61023 11.3874 6.28313 10.9552 5.62894 10.7789L5.04547 10.6466V10.0909H12.2062V10.6466L11.4636 10.8053C10.7918 10.9641 10.4558 11.4051 10.4558 12.1283C10.4381 13.1161 10.4293 14.1127 10.4293 15.1182C10.4293 16.106 10.4293 17.1026 10.4293 18.1081V21.4684C10.4293 23.1794 10.7741 24.4142 11.4636 25.1727C12.1709 25.9312 13.1698 26.3105 14.4605 26.3105C15.822 26.3105 16.8828 25.9047 17.6431 25.0933C18.4211 24.2643 18.81 23.0383 18.81 21.4155V12.2077C18.81 11.8549 18.7393 11.5462 18.5979 11.2816C18.4564 11.017 18.2089 10.8494 17.8553 10.7789L17.2188 10.6466V10.0909H21.303V10.6466L20.5604 10.8053C20.2245 10.8759 19.9947 11.0346 19.8709 11.2816C19.7471 11.5285 19.6852 11.8284 19.6852 12.1812V21.2567C19.6852 23.444 19.1106 25.1198 17.9614 26.284C16.8121 27.4482 15.2915 28.0303 13.3997 28.0303Z" fill="white"/>
  <path d="M12.9523 28.0303L14.0735 27.4604L16.8182 26.3485C17.1949 26.2037 17.5335 26.0231 17.6591 25.7879C17.8026 25.5527 17.9394 25.345 17.9394 24.947C18.5 23.8258 18.8633 23.7422 18.8633 22.7109C18.8633 21.6615 18.8633 20.6121 18.8633 19.5627V18.5857C18.8633 17.5363 18.8543 16.4959 18.8364 15.4646C18.8364 14.4152 18.8364 13.3658 18.8364 12.3164C18.8364 11.8821 18.7736 11.5565 18.648 11.3393C18.5225 11.1041 18.2623 10.9232 17.8677 10.7965L17.4371 10.6608V10.0909H25.0255C27.1782 10.0909 28.7389 10.498 29.7077 11.3122C30.6764 12.1083 31.1608 13.1215 31.1608 14.3519C31.1608 15.2927 30.8199 16.1431 30.1382 16.903C29.4565 17.6448 28.2635 18.1786 26.5593 18.5042C28.5326 18.7214 29.9588 19.237 30.8378 20.0512C31.7169 20.8654 32.1564 21.8605 32.1564 23.0366C32.1564 23.6156 32.0308 24.2036 31.7797 24.8007C31.5285 25.3797 31.098 25.9134 30.488 26.4019C29.896 26.8904 29.0888 27.2885 28.0662 27.5961C27.0437 27.8856 25.752 28.0303 24.1913 28.0303H12.9523ZM22.6844 18.3143H23.9491C25.169 18.3143 26.048 18.0429 26.5862 17.5001C27.1423 16.9392 27.4204 15.9893 27.4204 14.6504C27.4204 13.2572 27.1692 12.2802 26.6669 11.7193C26.1646 11.1584 25.3753 10.878 24.2989 10.878H22.6844V18.3143ZM22.6844 27.2433H24.1644C25.5098 27.2433 26.5145 26.9085 27.1782 26.2391C27.842 25.5696 28.1738 24.4931 28.1738 23.0094C28.1738 21.5801 27.8509 20.5759 27.2051 19.9969C26.5772 19.3999 25.5368 19.1013 24.0837 19.1013H22.6844V27.2433Z" fill="white"/>
  <path d="M23.8257 19.0997C23.2651 19.0997 23.5454 19.9014 23.5454 19.9014H26.6288L30.553 19.3408L29.1515 18.4999C29.1515 18.4999 26.8758 18.4254 26.5783 18.4999C26.5783 18.4999 24.3863 19.0997 23.8257 19.0997Z" fill="black"/>
</svg>